<svg xmlns="http://www.w3.org/2000/svg"  viewBox="0 0 72 72" width="64px" height="64px" fill-rule="evenodd" clip-rule="evenodd" baseProfile="basic"><path fill="#060000" fill-rule="evenodd" d="M38.927,55.573l-6,0.882v-14.5h-4v-5.029h4c0,0,0-2.572,0-5.226	c0-1.524,0.605-2.985,1.683-4.062c1.077-1.077,2.539-1.683,4.062-1.683h4.255v4c0,0-0.827,0-1.73,0c-1.254,0-2.27,1.016-2.27,2.27	v4.73l6-0.029l-2,5.029h-4V55.573z" clip-rule="evenodd"/><path fill="#060000" d="M35.927,60.917c-13.213,0-23.962-10.749-23.962-23.962s10.749-23.962,23.962-23.962	s23.962,10.749,23.962,23.962S49.14,60.917,35.927,60.917z M35.927,20.846c-8.882,0-16.109,7.226-16.109,16.109	s7.227,16.109,16.109,16.109s16.109-7.226,16.109-16.109S44.809,20.846,35.927,20.846z"/></svg>